<?xml version="1.0" encoding="utf-8" standalone="no"?><!DOCTYPE svg PUBLIC "-//W3C//DTD SVG 20010904//EN" "http://www.w3.org/TR/2001/REC-SVG-20010904/DTD/svg10.dtd"><svg xmlns="http://www.w3.org/2000/svg" width="454" height="335" xmlns:xlink="http://www.w3.org/1999/xlink"><source><![CDATA[Andrew->China: Says Hello
Note right of China: China thinks\nabout it
China-->Andrew: How are you?
Andrew->>China: I am good thanks!]]></source><desc></desc><defs><marker viewBox="0 0 5 5" markerWidth="5" markerHeight="5" orient="auto" refX="5" refY="2.5" id="markerArrowBlock"><path d="M 0 0 L 5 2.5 L 0 5 z"></path></marker><marker viewBox="0 0 9.6 16" markerWidth="4" markerHeight="16" orient="auto" refX="9.6" refY="8" id="markerArrowOpen"><path d="M 9.6,8 1.92,16 0,13.7 5.76,8 0,2.286 1.92,0 9.6,8 z"></path></marker></defs><g class="title"></g><g class="actor"><path d="M10,20C86.3,16.4 24.5,23.6 100.9,20.0C99.3,48.9 102.4,43.6 100.9,58.0C24.5,54.4 45.0,61.6 10.0,58.0C8.5,32.9 11.5,47.4 10.0,20.0" stroke="#000000" fill="#ffffff" style="stroke-width: 2;"></path><text x="21" y="45" style="font-size: 16px; font-family: danielbd;"><tspan x="20">Andrew</tspan></text></g><g class="actor"><path d="M10,277.1875C24.5,273.6 39.2,280.8 100.9,277.2C99.3,284.4 102.4,303.6 100.9,315.2C47.9,311.6 32.7,318.8 10.0,315.2C8.5,305.1 11.5,286.3 10.0,277.2" stroke="#000000" fill="#ffffff" style="stroke-width: 2;"></path><text x="21" y="302.1875" style="font-size: 16px; font-family: danielbd;"><tspan x="20">Andrew</tspan></text></g><path d="M55.4,58.0C64.2,224.6 46.7,193.8 55.4,277.2" stroke="#000000" fill="none" style="stroke-width: 2;"></path><g class="actor"><path d="M194.1796875,20C219.0,22.8 225.4,17.2 265.3,20.0C263.8,45.4 266.8,46.9 265.3,58.0C245.9,60.8 253.9,55.2 194.2,58.0C192.7,48.9 195.7,34.0 194.2,20.0" stroke="#000000" fill="#ffffff" style="stroke-width: 2;"></path><text x="205.1796875" y="45" style="font-size: 16px; font-family: danielbd;"><tspan x="204.1796875">China</tspan></text></g><g class="actor"><path d="M194.1796875,277.1875C250.4,274.3 248.2,280.0 265.3,277.2C263.8,304.4 266.8,299.9 265.3,315.2C248.2,312.3 211.2,318.0 194.2,315.2C192.7,290.8 195.7,286.3 194.2,277.2" stroke="#000000" fill="#ffffff" style="stroke-width: 2;"></path><text x="205.1796875" y="302.1875" style="font-size: 16px; font-family: danielbd;"><tspan x="204.1796875">China</tspan></text></g><path d="M229.7,58.0C238.5,200.2 221.0,239.7 229.7,277.2" stroke="#000000" fill="none" style="stroke-width: 2;"></path><g class="signal"><text x="100.5" y="86" style="font-size: 16px; font-family: danielbd;"><tspan x="98.5">Says Hello</tspan></text><path d="M55.4,102.0C93.6,95.0 164.2,109.0 229.7,102.0" stroke="#000000" fill="none" style="stroke-width: 2; marker-end: url(&quot;#markerArrowBlock&quot;);"></path></g><g class="note"><path d="M249.7421875,122C322.3,117.2 278.4,126.8 369.2,122.0C367.3,133.7 371.1,157.9 369.2,169.2C278.4,164.4 279.4,174.0 249.7,169.2C251.6,133.3 247.9,129.7 249.7,122.0" stroke="#000000" fill="#ffffff" style="stroke-width: 2;"></path><text x="255.7421875" y="142" style="font-size: 16px; font-family: danielbd;"><tspan x="254.7421875">China thinks</tspan><tspan dy="1.2em" x="254.7421875">about it</tspan></text></g><g class="signal"><text x="82.5546875" y="197.1875" style="font-size: 16px; font-family: danielbd;"><tspan x="81.5546875">How are you?</tspan></text><path d="M229.7,213.2C106.1,206.2 170.1,220.2 55.4,213.2" stroke="#000000" fill="none" style="stroke-width: 2; stroke-dasharray: 6, 2; marker-end: url(&quot;#markerArrowBlock&quot;);"></path></g><g class="signal"><text x="66.4296875" y="241.1875" style="font-size: 16px; font-family: danielbd;"><tspan x="65.4296875">I am good thanks!</tspan></text><path d="M55.4,257.2C144.3,264.2 133.0,250.2 229.7,257.2" stroke="#000000" fill="none" style="stroke-width: 2; marker-end: url(&quot;#markerArrowOpen&quot;);"></path></g></svg>